HIERARCHY
ROOT pelvis
{
  OFFSET 0 100 0
  CHANNELS 6 Xposition Yposition Zposition Zrotation Xrotation Yrotation
  JOINT pelvis_right_femur
  {
    OFFSET -10.78128 -3.44521 -0.5502486
    CHANNELS 3 Zrotation Xrotation Yrotation
    JOINT right_femur_tibia
    {
      OFFSET -0.8047443 -44.0398 -0.1307829
      CHANNELS 3 Zrotation Xrotation Yrotation
      JOINT right_tibia_foot
      {
        OFFSET 3.006224 -47.83518 -5
        CHANNELS 3 Zrotation Xrotation Yrotation
        End Site
        {
          OFFSET 0 -5 15
        }
      }
    }
  }
  JOINT pelvis_left_femur
  {
    OFFSET 10.78128 -3.44521 -0.5502486
    CHANNELS 3 Zrotation Xrotation Yrotation
    JOINT left_femur_tibia
    {
      OFFSET 0.8047443 -44.0398 -0.1307829
      CHANNELS 3 Zrotation Xrotation Yrotation
      JOINT left_tibia_foot
      {
        OFFSET -4.370144 -48.10324 -4.275266
        CHANNELS 3 Zrotation Xrotation Yrotation
        End Site
        {
          OFFSET 0 -5 15
        }
      }
    }
  }
  JOINT pelvis_spine1
  {
    OFFSET 0 6.468898 -3.129235
    CHANNELS 3 Zrotation Xrotation Yrotation
    JOINT spine1
    {
      OFFSET 0 23.15396 4.99043
      CHANNELS 3 Zrotation Xrotation Yrotation
      JOINT spine2
      {
        OFFSET 0 20.79997 -5.064912
        CHANNELS 3 Zrotation Xrotation Yrotation
        JOINT neck
        {
          OFFSET 0 14.38658 9.616178
          CHANNELS 3 Zrotation Xrotation Yrotation
          End Site
          {
            OFFSET 0 20 0
          }
        }
      }
      JOINT right_manubrium
      {
        OFFSET -5.722621 16.35077 3.967754
        CHANNELS 3 Zrotation Xrotation Yrotation
        JOINT right_clavicle
        {
          OFFSET -13.16364 1.694482 -4.693211
          CHANNELS 3 Zrotation Xrotation Yrotation
          JOINT right_humerus
          {
            OFFSET -28.5034 -0.3100689 -2.792744
            CHANNELS 3 Zrotation Xrotation Yrotation
            JOINT right_radius
            {
              OFFSET -25.15693 0.02248979 -1.271978
              CHANNELS 3 Zrotation Xrotation Yrotation
              End Site
              {
                OFFSET -15 0 0
              }
            }
          }
        }
      }
      JOINT left_manubrium
      {
        OFFSET 5.722621 16.35077 3.967754
        CHANNELS 3 Zrotation Xrotation Yrotation
        JOINT left_clavicle
        {
          OFFSET 13.16364 1.694482 -4.693211
          CHANNELS 3 Zrotation Xrotation Yrotation
          JOINT left_humerus
          {
            OFFSET 29.39168 -1.063119 -2.237045
            CHANNELS 3 Zrotation Xrotation Yrotation
            JOINT left_radius
            {
              OFFSET 24.59957 -0.9528479 0.9047498
              CHANNELS 3 Zrotation Xrotation Yrotation
              End Site
              {
                OFFSET 15 -0 -0
              }
            }
          }
        }
      }
    }
  }
}
MOTION
Frames: 15
Frame Time: 0.0416666666667
0 103.5113 0 2.178762 -1.227322 0.2964402 1.245845 -10.02998 8.773695 -0 34.95655 -0 -5.285838 -18.01798 -2.467579 -8.029451 10.10202 -23.5184 -0 5.120954 -0 7.687729 -16.13261 26.5826 -4.324643 -5.065332 4.933289 1.994795 9.222008 -7.750623 0.8324735 22.83704 7.174118 3.248531 -23.09526 8.809292 6.379463 -19.77736 11.56691 86.31022 35.94267 -19.77735 -0 0 16.28635 -7.581554 8.242845 4.625692 5.456089 -19.46194 -1.711709 -94.79785 29.76054 22.96874 0 0 -15.90424 3.485111 17.90457 9.596088
0.3178082 103.4934 1.327449 2.008814 -1.149329 0.5076472 1.531291 -10.96646 8.729309 -0 35.28986 -0 -5.37305 -17.71333 -2.631191 -7.857789 10.24743 -23.41999 -0 5.14226 -0 7.563058 -16.37195 26.41863 -4.235121 -4.881255 4.837768 2.055419 9.201634 -7.793441 0.8447898 22.76448 7.194255 3.270115 -23.22164 8.834748 6.380431 -19.76136 11.55417 86.28478 35.91598 -19.7914 -0 0 16.24438 -7.629273 8.275479 4.663506 5.468594 -19.46934 -1.744509 -94.73 29.74048 22.88379 0 0 -16.04633 3.515726 17.8155 9.632225
0.6711463 103.4402 2.746055 1.748867 -0.9302092 0.572931 1.921424 -12.50121 8.503064 -0 34.16072 -0 -5.489496 -17.04058 -2.456306 -7.594687 10.40112 -23.21032 -0 5.224704 -0 7.350443 -16.77705 26.12783 -4.147174 -4.571271 4.757658 2.238844 9.142796 -7.851601 0.8665082 22.56639 7.224734 3.323407 -23.43307 8.847301 6.371613 -19.70888 11.5509 86.23291 35.88341 -19.83189 -0 0 16.12049 -7.696944 8.330394 4.710264 5.608839 -19.4816 -1.788899 -94.63496 29.68804 22.64379 0 0 -16.46068 3.587743 17.6818 9.629645
1.08429 103.2823 4.346441 1.455189 -0.5079673 0.4369677 2.31671 -14.50252 8.026111 -0 30.93642 -0 -5.598016 -15.83014 -1.847951 -7.360264 10.53597 -22.84055 -0 5.420024 -0 7.066046 -17.38173 25.68675 -4.107371 -4.149806 4.750532 2.516996 9.02375 -7.874418 0.9611444 22.20247 7.239002 3.438539 -23.74273 8.868787 6.314227 -19.55491 11.55716 86.19867 35.84267 -19.94762 -0 0 15.87885 -7.782243 8.409579 4.759924 5.870318 -19.5466 -1.83753 -94.48819 29.61633 22.19232 0 0 -17.2074 3.692041 17.51089 9.533479
1.548287 102.9188 6.157828 1.238918 0.0430098 0.2279955 2.545854 -16.68463 7.38971 -0 25.68317 -0 -5.670277 -14.07271 -0.8596551 -7.241275 10.66378 -22.2935 -0 5.820795 -0 6.714353 -18.12374 25.07472 -4.115296 -3.716594 4.863671 2.818619 8.882025 -7.78261 1.130693 21.78595 7.213915 3.592479 -24.09415 8.900661 6.174581 -19.257 11.55356 86.23922 35.78796 -20.16701 -0 0 15.50789 -7.886591 8.513616 4.809677 6.248805 -19.73611 -1.836868 -94.22641 29.54762 21.50987 0 0 -18.21625 3.802833 17.30408 9.34923
2.05508 102.3223 8.214832 1.153013 0.720072 0.03429145 2.531739 -18.73598 6.62778 -0 18.84102 -0 -5.70558 -11.93796 0.3890867 -7.248411 10.80775 -21.57737 -0 6.45903 -0 6.27442 -18.91164 24.23509 -4.176988 -3.352212 5.055628 3.045082 8.710381 -7.595802 1.329349 21.40323 7.160914 3.759954 -24.42568 8.920104 5.959338 -18.92018 11.51459 86.3412 35.72337 -20.39347 -0 0 15.06542 -8.018836 8.640733 4.874614 6.695132 -20.02704 -1.761832 -93.85026 29.46394 20.69296 0 0 -19.30895 3.913796 17.06031 9.130873
2.607903 101.5441 10.61578 1.191207 1.506312 -0.1182982 2.386429 -20.40596 5.713189 -0 11.24698 -0 -5.720275 -9.814367 1.677467 -7.376512 11.02566 -20.67844 -0 7.40754 -0 5.680841 -19.63125 23.13007 -4.251863 -3.107892 5.195403 3.157728 8.532539 -7.445092 1.481615 21.08981 7.127877 3.910722 -24.68864 8.915164 5.699056 -18.57835 11.41648 86.54555 35.65758 -20.62042 -0 0 14.55527 -8.16734 8.799234 4.960595 7.113915 -20.32427 -1.665389 -93.4093 29.33645 19.87808 0 0 -20.27713 4.017294 16.774 8.957992
3.184419 100.635 13.47124 1.250523 2.28242 -0.1228392 2.303183 -21.43269 4.807926 -0 4.15445 -0 -5.78352 -8.134168 2.847065 -7.509164 11.3145 -19.66092 -0 8.895018 -0 4.848801 -20.11167 21.73008 -4.216195 -2.98601 5.222293 3.182255 8.378904 -7.39445 1.553308 20.86609 7.137907 4.027601 -24.86184 8.886544 5.453929 -18.16601 11.26669 86.91744 35.59138 -20.94017 -0 0 13.93491 -8.31209 9.00266 5.060053 7.363317 -20.59439 -1.593712 -92.95328 29.15891 19.17748 0 0 -20.91926 4.081598 16.43612 8.885762
3.749918 99.73484 16.88458 1.208678 2.986217 0.1549155 2.409245 -21.52666 4.119926 0 -1.163284 0 -5.993733 -7.092309 3.774426 -7.475768 11.59953 -18.57829 -0 11.21976 -0 3.681973 -20.05234 19.99164 -3.977276 -2.991747 5.102414 3.171199 8.225671 -7.488381 1.554418 20.69778 7.168601 4.108694 -24.98837 8.816185 5.277234 -17.7014 11.09885 87.40332 35.53097 -21.35291 -0 0 13.1977 -8.46926 9.254958 5.175498 7.337117 -20.73516 -1.585715 -92.5737 28.91741 18.73575 0 0 -21.11059 4.084091 16.04286 8.934044
4.289177 99.04696 20.89811 1.025755 3.645475 0.7413131 2.645954 -20.43528 3.70467 0 -3.970398 0 -6.423026 -6.589271 4.334743 -7.1397 11.72769 -17.47587 -0 14.61774 -0 2.1219 -19.04537 17.90146 -3.486509 -3.147675 4.830262 3.151003 8.043676 -7.731725 1.471229 20.55282 7.200881 4.131844 -25.0887 8.674894 5.185662 -17.21113 10.94679 87.94102 35.48305 -21.82729 -0 0 12.35069 -8.660777 9.555631 5.308731 7.02421 -20.68555 -1.655714 -92.33934 28.60897 18.62385 0 0 -20.84563 4.024752 15.60772 9.099159
4.806518 98.706 25.49274 0.6951847 4.176255 1.50892 2.959784 -18.12592 3.560284 0 -4.51652 0 -7.053014 -6.486857 4.530126 -6.559155 11.42974 -16.41011 -0 19.35586 -0 0.2346564 -16.73415 15.60689 -2.723196 -3.448126 4.509176 3.11762 7.876617 -8.022608 1.30329 20.45414 7.216559 4.079176 -25.08706 8.446668 5.126173 -16.68467 10.84496 88.48732 35.4469 -22.30637 -0 0 11.46396 -8.90504 9.90076 5.473553 6.497897 -20.44882 -1.778545 -92.28711 28.24053 18.8272 0 0 -20.21339 3.90668 15.14586 9.357158
5.322001 98.78967 30.58778 0.3054345 4.326186 2.166747 3.342274 -14.84663 3.646978 0 -3.937432 0 -7.748998 -6.87344 4.521046 -6.006578 10.40484 -15.39304 -0 25.85764 -0 -1.734529 -12.97984 13.39461 -1.779761 -3.765407 4.363201 3.045015 7.824412 -8.157325 1.074093 20.45927 7.192718 3.955763 -24.89043 8.124147 5.065511 -16.1631 10.88442 88.95549 35.43353 -22.63421 -0 0 10.65538 -9.228122 10.2838 5.698679 5.863832 -20.08719 -1.918989 -92.38625 27.8126 19.24266 0 0 -19.40784 3.742165 14.66888 9.651818
5.844898 99.31215 35.99547 0.07160982 3.909119 2.368593 3.646296 -10.69257 3.805201 0 -3.368735 0 -8.3475 -7.927839 4.481114 -5.706698 8.304412 -14.42876 -0 34.27076 -0 -3.402244 -8.172928 11.58618 -0.9061863 -3.911084 4.633219 2.90916 7.973752 -7.939946 0.8184032 20.62324 7.108257 3.788326 -24.47516 7.706028 5.066161 -15.70603 11.15508 89.26514 35.46091 -22.65433 -0 0 10.00049 -9.655849 10.70082 6.007007 5.217655 -19.73769 -2.039391 -92.51774 27.33478 19.71316 0 0 -18.63663 3.561693 14.19632 9.921135
6.355291 100.1661 41.46999 0.1874024 2.92874 2.052415 3.641271 -5.510605 3.853549 0 -3.383567 0 -8.736373 -9.588444 4.522934 -5.637508 4.695046 -13.53497 -0 43.84009 -0 -4.463658 -3.385055 10.46717 -0.4204195 -3.783835 5.394374 2.706898 8.32669 -7.369241 0.6061835 20.9777 6.930052 3.629575 -23.84878 7.200313 5.176879 -15.42141 11.61563 89.27562 35.5431 -22.22046 -0 0 9.587203 -10.24058 11.13674 6.425549 4.634777 -19.491 -2.109689 -92.56805 26.82197 20.14781 0 0 -18.01391 3.404351 13.74644 10.12021
6.85754 101.2188 46.80141 0.7542148 1.508783 1.521739 3.154495 0.5393099 3.752341 0 -4.23422 0 -8.835668 -11.53963 4.725743 -5.641975 -0.5607226 -12.70438 -0 53.03542 -0 -4.8792 0.190214 10.15559 -0.5251497 -3.385171 6.514785 2.431528 8.77412 -6.61477 0.4938549 21.52861 6.640098 3.520252 -23.00774 6.630181 5.353288 -15.4973 12.13 88.76297 35.68952 -21.15933 -0 0 9.546089 -11.06563 11.55869 6.984432 4.186204 -19.40262 -2.109049 -92.45163 26.27661 20.4702 0 0 -17.64168 3.317737 13.3252 10.19969
